<svg version="1.1" id="Layer_1" xmlns="http://www.w3.org/2000/svg" xmlns:xlink="http://www.w3.org/1999/xlink" x="0px"
	y="0px" width="100%" viewBox="0 0 512 512" enable-background="new 0 0 512 512" xml:space="preserve">
	<path fill="#ffffff" opacity="1.000000" stroke="none" d="
M364.000244,274.379028 
	C373.331299,274.379089 382.162323,274.368011 390.993317,274.382294 
	C400.137665,274.397064 407.321838,278.017700 411.049896,286.580261 
	C419.115570,305.105499 433.278931,313.042419 453.140472,312.130493 
	C461.786621,311.733490 470.466980,311.991211 479.130371,312.084412 
	C489.840851,312.199615 497.780975,320.027435 497.794891,330.745850 
	C497.859161,380.232788 497.861420,429.719910 497.790497,479.206848 
	C497.775391,489.750336 489.601471,497.796082 478.977905,497.801300 
	C392.833832,497.843811 306.689728,497.842163 220.545654,497.804688 
	C209.225113,497.799774 201.442398,489.729980 201.400528,477.954132 
	C201.314606,453.794098 201.372177,429.633575 201.371521,405.473236 
	C201.370880,381.479523 201.359406,357.485809 201.375748,333.492096 
	C201.385529,319.142120 208.513153,312.066315 222.899994,312.063324 
	C232.230881,312.061371 241.562088,312.111816 250.892578,312.051666 
	C266.810638,311.949097 278.654388,305.059357 286.065552,290.812317 
	C287.676147,287.716187 289.103180,284.429657 291.236481,281.720337 
	C295.565094,276.222961 301.694000,274.364624 308.514679,274.370941 
	C326.843201,274.387848 345.171722,274.378143 364.000244,274.379028 
M385.265350,469.819458 
	C412.567413,453.982910 427.427094,424.227142 422.832184,394.593658 
	C417.988190,363.353760 395.545349,339.022491 365.577179,332.520966 
	C333.392883,325.538635 301.042725,340.171478 284.960358,368.986084 
	C269.336609,396.979095 273.994659,433.281555 296.124756,455.996094 
	C319.893799,480.392822 354.328613,485.903473 385.265350,469.819458 
z" />
	<path fill="#ffffff" opacity="1.000000" stroke="none" d="
M201.419891,253.989807 
	C197.626099,251.507233 196.791214,248.154709 196.811371,244.245377 
	C196.890442,228.917206 196.843262,213.588364 196.842972,198.259781 
	C196.842957,196.976242 196.842972,195.692703 196.842972,194.409180 
	C196.122116,193.809402 195.401245,193.209641 194.680389,192.609879 
	C194.176315,193.967422 193.968872,195.555725 193.120895,196.645737 
	C186.779160,204.797653 180.338135,212.872971 173.874069,220.928864 
	C167.962723,228.295898 162.134186,228.350464 156.257980,221.071091 
	C149.665787,212.904770 143.158295,204.670090 136.599274,196.476898 
	C135.896698,195.599289 135.096344,194.799927 133.638474,193.186295 
	C133.406128,195.255753 133.161697,196.428497 133.159821,197.601639 
	C133.134995,213.096786 133.174072,228.592087 133.132767,244.087173 
	C133.111526,252.059097 129.901428,255.218765 121.846970,255.243484 
	C109.350952,255.281845 96.854546,255.295242 84.358688,255.237045 
	C76.847145,255.202057 73.254372,251.657120 73.250648,244.282944 
	C73.227608,198.630417 73.227081,152.977890 73.251289,107.325363 
	C73.255104,100.124863 77.081551,96.305511 84.399094,96.260330 
	C96.728127,96.184189 109.059479,96.349770 121.386734,96.183357 
	C126.161530,96.118904 129.628174,97.906380 132.529922,101.599586 
	C141.896179,113.520538 151.387833,125.342995 160.840149,137.196259 
	C161.969543,138.612518 163.154343,139.984619 164.703293,141.845520 
	C165.945358,140.531876 166.995483,139.569321 167.873795,138.469543 
	C177.438522,126.493103 187.087082,114.580841 196.463928,102.458565 
	C199.938004,97.967316 203.958084,95.979462 209.698868,96.138084 
	C221.353027,96.460091 233.022400,96.205162 244.685333,96.243187 
	C252.749924,96.269478 256.479645,99.817574 256.489624,107.696396 
	C256.547729,153.515167 256.562256,199.334015 256.551147,245.152847 
	C256.549774,250.936142 253.076508,255.062515 247.585022,255.144089 
	C233.592972,255.351944 219.595657,255.239944 205.600891,255.168869 
	C204.324631,255.162399 203.051559,254.529480 201.419891,253.989807 
M215.308090,178.503204 
	C215.306854,196.163269 215.433014,213.824936 215.211960,231.482239 
	C215.158768,235.730301 216.542526,237.059509 220.635468,236.773163 
	C224.946121,236.471588 229.300705,236.561310 233.623978,236.753128 
	C236.937241,236.900116 237.896057,235.561523 237.888763,232.348877 
	C237.803268,194.695953 237.790207,157.042633 237.900146,119.389824 
	C237.910950,115.686836 236.396179,114.868759 233.123367,114.965797 
	C227.297241,115.138519 221.452209,115.223183 215.634750,114.940361 
	C211.930038,114.760254 209.539154,115.949257 207.219864,118.924446 
	C196.057327,133.243835 184.692871,147.407501 173.278717,161.528336 
	C167.683029,168.450958 161.964325,168.394470 156.404800,161.517090 
	C148.445587,151.671188 140.612564,141.723358 132.663513,131.869171 
	C128.180344,126.311546 124.582893,118.747185 118.736931,115.944214 
	C112.880638,113.136292 104.723267,115.126839 97.574425,115.016632 
	C96.908157,115.006363 96.237083,115.064003 95.575958,115.004448 
	C92.677177,114.743286 91.906288,116.184036 91.910477,118.897217 
	C91.969109,156.883453 91.968575,194.869843 91.909119,232.856079 
	C91.904770,235.635040 92.864273,236.798248 95.670570,236.732819 
	C100.332977,236.624146 105.013954,236.482620 109.660477,236.776260 
	C113.614029,237.026108 114.816277,235.666809 114.781799,231.678986 
	C114.598877,210.521484 114.685844,189.361618 114.694069,168.202560 
	C114.696640,161.589203 116.667076,158.109192 121.296509,156.666916 
	C126.527679,155.037216 129.813568,157.972946 132.758942,161.679184 
	C142.190475,173.547119 151.627838,185.410431 161.091446,197.252762 
	C162.274338,198.732986 163.628113,200.076660 165.168732,201.777252 
	C166.896881,199.687912 168.184235,198.180435 169.418900,196.631012 
	C178.762405,184.905670 188.094833,173.171494 197.432373,161.441406 
	C200.403778,157.708649 203.822647,154.904144 208.981522,156.786179 
	C213.944992,158.596909 215.508499,162.530655 215.330750,167.509811 
	C215.211960,170.837708 215.308441,174.173264 215.308090,178.503204 
z" />
	<path fill="#ffffff" opacity="1.000000" stroke="none" d="
M367.261169,136.000031 
	C367.260376,144.658936 367.506500,152.828278 367.161713,160.972610 
	C366.968781,165.529465 368.644958,166.676422 372.921600,166.520767 
	C381.069763,166.224213 389.236816,166.488373 397.394958,166.408890 
	C401.960327,166.364441 405.586731,167.928070 407.669952,172.109879 
	C409.766449,176.318344 408.035858,179.805573 405.266449,183.050095 
	C385.594360,206.097015 365.984161,229.196960 346.256348,252.196030 
	C339.951111,259.546783 335.021759,259.438354 328.619537,251.968140 
	C309.010162,229.087631 289.474640,206.143860 269.897888,183.235352 
	C267.140167,180.008301 265.407806,176.544937 267.346008,172.287018 
	C269.414886,167.742081 273.248474,166.354202 277.970154,166.405777 
	C286.128082,166.494949 294.292938,166.261459 302.444275,166.510742 
	C306.337952,166.629807 307.640564,165.483017 307.591217,161.437424 
	C307.378174,143.956650 307.476410,126.471809 307.502594,108.988518 
	C307.516571,99.653389 310.880066,96.256859 320.046570,96.243324 
	C332.035126,96.225616 344.023926,96.198479 356.012238,96.256828 
	C363.969543,96.295555 367.511627,100.068092 367.423828,108.029930 
	C367.322845,117.186119 367.311340,126.343285 367.261169,136.000031 
M348.815704,175.996521 
	C348.810333,157.353867 348.700317,138.710175 348.883606,120.069359 
	C348.922546,116.108673 347.749786,114.650047 343.778168,114.947891 
	C339.971069,115.233391 336.100159,115.290878 332.304077,114.940903 
	C327.609985,114.508133 325.958618,115.959213 326.048431,120.950638 
	C326.356873,138.089737 326.173279,155.237808 326.165070,172.382462 
	C326.160309,182.283554 323.318756,185.106522 313.388428,185.115051 
	C308.040436,185.119629 302.692474,185.115860 296.052032,185.115860 
	C310.443665,201.976181 323.789307,217.611069 337.552948,233.735657 
	C351.341095,217.547043 364.707184,201.854004 378.964478,185.114548 
	C371.491943,185.114548 365.557953,185.156830 359.624847,185.102982 
	C353.327789,185.045822 350.808350,183.072769 348.815704,175.996521 
z" />
	<path fill="#ffffff" opacity="1.000000" stroke="none" d="
M36.611847,54.806110 
	C35.059570,59.903339 33.705570,64.672134 32.274048,69.713959 
	C28.115355,69.713959 23.352837,69.713959 18.610386,69.713959 
	C17.283556,45.365871 38.139847,22.961916 58.486015,19.214682 
	C59.674862,23.780489 60.870529,28.372494 62.133266,33.222080 
	C50.604893,36.884026 41.965446,43.652874 36.611847,54.806110 
z" />
	<path fill="#ffffff" opacity="1.000000" stroke="none" d="
M69.399948,482.848022 
	C71.339516,482.870758 72.834015,482.870758 74.652985,482.870758 
	C74.652985,487.768738 74.652985,492.504120 74.652985,497.267120 
	C59.169743,500.338898 30.641224,489.225311 21.322500,462.105591 
	C25.777813,460.478821 30.244287,458.847931 35.066219,457.087280 
	C41.565384,472.078247 52.644733,480.968048 69.399948,482.848022 
z" />
	<path fill="#ffffff" opacity="1.000000" stroke="none" d="
M472.956848,45.056431 
	C461.812439,32.753212 447.565674,31.012043 432.250854,32.277115 
	C432.250854,27.042000 432.250854,22.308008 432.250854,17.589123 
	C456.211334,13.906741 480.820862,24.952398 489.995605,43.594887 
	C485.902496,46.040569 481.793701,48.495628 477.675079,50.956551 
	C476.078461,48.953724 474.632111,47.139389 472.956848,45.056431 
z" />
	<path fill="#ffffff" opacity="1.000000" stroke="none" d="
M132.999969,497.926880 
	C123.541435,497.926880 114.582901,497.926880 105.295410,497.926880 
	C105.295410,492.971985 105.295410,488.250427 105.295410,483.220642 
	C124.913231,483.220642 144.615967,483.220642 164.646423,483.220642 
	C164.646423,487.828308 164.646423,492.557007 164.646423,497.926880 
	C154.315598,497.926880 143.907791,497.926880 132.999969,497.926880 
z" />
	<path fill="#ffffff" opacity="1.000000" stroke="none" d="
M32.999947,406.000000 
	C32.999947,414.122894 32.999947,421.745789 32.999947,429.644104 
	C27.965170,429.644104 23.244448,429.644104 18.259651,429.644104 
	C18.259651,409.858307 18.259651,390.155151 18.259651,370.186798 
	C23.037622,370.186798 27.762369,370.186798 32.999947,370.186798 
	C32.999947,381.990540 32.999947,393.745270 32.999947,406.000000 
z" />
	<path fill="#ffffff" opacity="1.000000" stroke="none" d="
M32.999947,318.999847 
	C32.999947,326.124481 32.999947,332.749176 32.999947,339.646210 
	C27.960773,339.646210 23.240030,339.646210 18.257502,339.646210 
	C18.257502,319.854126 18.257502,300.150848 18.257502,280.184570 
	C23.041973,280.184570 27.766615,280.184570 32.999947,280.184570 
	C32.999947,292.993835 32.999947,305.746857 32.999947,318.999847 
z" />
	<path fill="#ffffff" opacity="1.000000" stroke="none" d="
M20.247293,249.917847 
	C19.183813,249.310730 18.086853,248.709717 18.084019,248.103592 
	C17.993979,228.848450 18.010033,209.592819 18.010033,190.139862 
	C23.145739,190.139862 27.870605,190.139862 32.778992,190.139862 
	C32.778992,210.066788 32.778992,229.776154 32.778992,249.921585 
	C28.622902,249.921585 24.673393,249.921585 20.247293,249.917847 
z" />
	<path fill="#ffffff" opacity="1.000000" stroke="none" d="
M490.016357,226.034836 
	C487.555481,226.034836 485.578186,226.034836 483.301514,226.034836 
	C483.301514,206.100296 483.301514,186.383392 483.301514,166.350616 
	C487.941650,166.350616 492.668335,166.350616 497.699982,166.350616 
	C497.699982,186.001053 497.699982,205.714600 497.699982,226.034836 
	C495.359344,226.034836 492.929657,226.034836 490.016357,226.034836 
z" />
	<path fill="#ffffff" opacity="1.000000" stroke="none" d="
M25.980263,159.922424 
	C23.197906,159.922424 20.895828,159.922424 18.298470,159.922424 
	C18.298470,139.932571 18.298470,120.226608 18.298470,100.220856 
	C22.974327,100.220856 27.700861,100.220856 32.715912,100.220856 
	C32.715912,119.887413 32.715912,139.600082 32.715912,159.922424 
	C30.650438,159.922424 28.555489,159.922424 25.980263,159.922424 
z" />
	<path fill="#ffffff" opacity="1.000000" stroke="none" d="
M483.000580,88.016182 
	C483.000580,83.882126 483.000580,80.244606 483.000580,76.324600 
	C487.994507,76.324600 492.720032,76.324600 497.725281,76.324600 
	C497.725281,96.050087 497.725281,115.761185 497.725281,135.754196 
	C493.003143,135.754196 488.274475,135.754196 483.000580,135.754196 
	C483.000580,120.007561 483.000580,104.260139 483.000580,88.016182 
z" />
	<path fill="#ffffff" opacity="1.000000" stroke="none" d="
M372.999939,32.081329 
	C362.536591,32.081329 352.573273,32.081329 342.303833,32.081329 
	C342.303833,27.146200 342.303833,22.413900 342.303833,17.375565 
	C361.964081,17.375565 381.666656,17.375565 401.687012,17.375565 
	C401.687012,22.047152 401.687012,26.771515 401.687012,32.081329 
	C392.328033,32.081329 382.914001,32.081329 372.999939,32.081329 
z" />
	<path fill="#ffffff" opacity="1.000000" stroke="none" d="
M258.113525,17.073719 
	C276.206299,17.073719 293.813599,17.073719 311.711243,17.073719 
	C311.711243,22.095625 311.711243,26.821833 311.711243,31.817406 
	C291.976318,31.817406 272.267212,31.817406 252.276825,31.817406 
	C252.276825,27.086765 252.276825,22.355604 252.276825,17.073721 
	C254.086761,17.073721 255.857376,17.073721 258.113525,17.073719 
z" />
	<path fill="#ffffff" opacity="1.000000" stroke="none" d="
M195.000031,17.073719 
	C204.126373,17.073719 212.752716,17.073719 221.690063,17.073719 
	C221.690063,22.051197 221.690063,26.775934 221.690063,31.794914 
	C202.021423,31.794914 182.314621,31.794914 162.301620,31.794914 
	C162.301620,27.141302 162.301620,22.409168 162.301620,17.073719 
	C173.005844,17.073719 183.752930,17.073719 195.000031,17.073719 
z" />
	<path fill="#ffffff" opacity="1.000000" stroke="none" d="
M111.999641,17.073719 
	C118.796211,17.073719 125.092911,17.073719 131.694687,17.073719 
	C131.694687,22.060436 131.694687,26.785404 131.694687,31.799603 
	C112.012550,31.799603 92.305794,31.799603 72.297241,31.799603 
	C72.297241,27.132734 72.297241,22.402039 72.297241,17.073719 
	C85.346802,17.073719 98.423286,17.073719 111.999641,17.073719 
z" />
	<path fill="#ffffff" opacity="1.000000" stroke="none" d="
M482.996582,259.194366 
	C483.954926,257.818573 484.856934,256.238251 485.880951,256.154816 
	C489.667480,255.846237 493.494293,256.032013 497.653931,256.032013 
	C497.653931,268.201263 497.653931,280.221802 497.653931,292.530640 
	C492.956360,292.530640 488.240906,292.530640 482.996216,292.530640 
	C482.996216,281.506256 482.996216,270.591583 482.996582,259.194366 
z" />
	<path fill="#ffffff" opacity="1.000000" stroke="none" d="
M368.228302,372.683899 
	C383.520782,382.566010 389.945892,398.752869 385.337891,415.187866 
	C381.059631,430.446594 367.089813,441.429871 351.138092,442.076172 
	C334.791840,442.738495 320.084442,432.706573 314.527649,417.104095 
	C309.460693,402.877014 313.767303,386.914703 325.444702,376.640350 
	C336.957916,366.510529 353.228729,364.920532 368.228302,372.683899 
z" />
</svg>